#!OML:ASF H:\Terrain\Patient Classification 1\Terrain2\Thursday\justin.ASF
:FULLY-SPECIFIED
:DEGREES
1512
root -13.0716 16.9945 -8.43259 369.728 -229.017 -345.48
lowerback 6.19641 1.03075 7.48458
upperback 3.84929 2.09982 4.2052
thorax 0.613054 1.27762 0.0439777
lowerneck -10.2304 -5.26363 -10.217
upperneck 41.5508 -3.87366 6.34417
head 17.3987 -1.17834 4.47294
rclavicle -5.9039e-014 -1.98785e-014
rhumerus -26.5759 -2.26329 -81.6853
rradius 45.0106
rwrist -15.655
rhand -20.5132 14.4377
rfingers 7.12502
rthumb 5.84433 -15.4617
lclavicle -5.9039e-014 -1.98785e-014
lhumerus -35.1358 9.72828 84.2778
lradius 26.5994
lwrist -1.77737
lhand -18.247 19.0911
lfingers 7.12502
lthumb 8.03198 48.9185
rfemur -11.9497 -7.21603 32.8559
rtibia 35.4691
rfoot -21.186 5.55743
rtoes 16.8517
lfemur -20.8912 -2.33325 -6.55759
ltibia 54.7407
lfoot -11.742 -2.56569
ltoes -3.28137
1513
root -13.0698 17.0115 -8.46684 369.67 -230.058 -346.034
lowerback 6.18962 1.68289 7.69679
upperback 3.72976 2.92186 3.33416
thorax 0.597618 1.67186 -1.01424
lowerneck -9.89622 -5.76947 -8.89074
upperneck 41.2281 -5.22756 6.68655
head 17.2394 -1.47906 4.13706
rclavicle -1.25731e-014 2.44505e-014
rhumerus -26.832 -4.94167 -81.9924
rradius 44.9349
rwrist -15.701
rhand -20.5122 14.2975
rfingers 7.12502
rthumb 5.84536 -15.6018
lclavicle -1.25731e-014 2.44505e-014
lhumerus -34.7718 6.56091 84.5618
lradius 26.4323
lwrist -0.889197
lhand -18.0324 19.3429
lfingers 7.12502
lthumb 8.23905 49.1623
rfemur -12.1449 -6.72948 32.199
rtibia 35.4496
rfoot -21.1218 6.07822
rtoes 16.9932
lfemur -21.1762 -3.28848 -6.97974
ltibia 54.7386
lfoot -11.6726 -3.58039
ltoes -1.03245
1514
root -13.0786 17.0074 -8.50661 370.339 -230.885 -345.185
lowerback 6.42359 1.45651 8.10758
upperback 3.7563 2.67997 3.45951
thorax 0.491854 1.55936 -1.10803
lowerneck -9.80447 -5.5825 -8.89182
upperneck 41.129 -5.00463 6.68707
head 17.1279 -1.40664 4.16291
rclavicle -2.02263e-014 2.98177e-014
rhumerus -26.5849 -4.77357 -82.124
rradius 44.5841
rwrist -15.7566
rhand -20.6781 13.9968
rfingers 7.12502
rthumb 5.68511 -15.9069
lclavicle -2.02263e-014 2.98177e-014
lhumerus -35.1153 6.69838 84.7571
lradius 26.5205
lwrist -0.664545
lhand -17.7525 19.1516
lfingers 7.12502
lthumb 8.50921 48.9601
rfemur -11.943 -6.49754 32.4612
rtibia 35.367
rfoot -21.0395 6.74588
rtoes 17.8538
lfemur -21.121 -4.11778 -6.40668
ltibia 54.7284
lfoot -11.8738 -4.70306
ltoes -1.3294
1515
root -13.0804 17.0055 -8.54743 371.077 -231.936 -344.329
lowerback 6.50913 0.748932 7.74373
upperback 3.80148 1.76982 4.19464
thorax 0.381558 1.10691 -0.102243
lowerneck -9.80874 -4.95867 -10.0074
upperneck 41.2226 -3.63175 6.24455
head 17.0486 -1.10501 4.38691
rclavicle 4.07012e-014 -1.19271e-014
rhumerus -26.1832 -1.98385 -82.0769
rradius 44.3291
rwrist -16.2166
rhand -20.8936 13.5966
rfingers 7.12502
rthumb 5.47711 -16.3126
lclavicle 4.07012e-014 -1.19271e-014
lhumerus -35.9685 9.89169 84.723
lradius 26.7155
lwrist -1.56134
lhand -17.3972 19.1564
lfingers 7.12502
lthumb 8.85204 48.9507
rfemur -11.7298 -6.26089 32.6504
rtibia 35.2167
rfoot -20.9429 7.56766
rtoes 18.763
lfemur -21.0165 -4.64176 -5.909
ltibia 54.6691
lfoot -12.1882 -5.86814
ltoes -3.37198
1516
root -13.0751 17.0152 -8.5869 371.671 -233.136 -343.921
lowerback 6.5725 1.41293 8.33173
upperback 3.71532 2.65793 3.60967
thorax 0.368728 1.5465 -1.08199
lowerneck -9.7786 -5.61252 -8.95002
upperneck 41.2528 -4.97165 6.32995
head 17.1776 -1.47512 4.01189
rclavicle -4.85035e-014 1.47101e-014
rhumerus -26.7037 -4.08724 -82.178
rradius 44.4811
rwrist -16.3785
rhand -20.9309 13.6231
rfingers 7.12502
rthumb 5.44102 -16.287
lclavicle -4.85035e-014 1.47101e-014
lhumerus -35.7144 7.83177 84.799
lradius 26.5914
lwrist -1.79152
lhand -17.4109 19.2674
lfingers 7.12502
lthumb 8.83881 49.0623
rfemur -11.7097 -6.07086 32.5034
rtibia 35.0224
rfoot -20.844 8.53172
rtoes 19.7935
lfemur -21.0887 -5.27293 -5.72597
ltibia 54.5366
lfoot -12.4683 -7.06499
ltoes -4.05083
1517
root -13.0729 17.0216 -8.62626 372.126 -234.21 -343.564
lowerback 6.67226 1.52446 8.41756
upperback 3.73374 2.81514 3.52741
thorax 0.354267 1.62463 -1.22558
lowerneck -9.97761 -5.73237 -8.88025
upperneck 41.3343 -5.23919 6.43169
head 17.3096 -1.57028 4.00322
rclavicle -5.05907e-014 2.82274e-014
rhumerus -26.8734 -4.31728 -82.0818
rradius 44.4912
rwrist -16.4664
rhand -20.6976 13.8051
rfingers 7.12502
rthumb 5.66633 -16.0992
lclavicle -5.05907e-014 2.82274e-014
lhumerus -35.7929 7.14467 85.1641
lradius 26.731
lwrist -1.37724
lhand -17.3474 19.2559
lfingers 7.12502
lthumb 8.90008 49.0482
rfemur -11.6156 -6.00028 32.3138
rtibia 34.8344
rfoot -20.6637 9.49999
rtoes 21.1959
lfemur -21.0412 -6.33776 -5.5882
ltibia 54.2653
lfoot -12.6442 -8.23512
ltoes -2.78675
1518
root -13.0729 17.015 -8.66447 372.548 -235.494 -343.127
lowerback 6.7895 1.36161 8.1467
upperback 3.94233 2.59438 3.65591
thorax 0.468264 1.52286 -0.930944
lowerneck -10.4216 -5.48296 -8.89103
upperneck 41.2863 -4.84556 6.23775
head 17.3388 -1.46537 3.96844
rclavicle 1.08536e-013 4.73108e-014
rhumerus -26.4661 -3.45411 -82.1858
rradius 44.2235
rwrist -16.4934
rhand -20.6563 13.6622
rfingers 7.12502
rthumb 5.70618 -16.2409
lclavicle 1.08536e-013 4.73108e-014
lhumerus -35.8175 7.23511 85.5326
lradius 26.9337
lwrist -0.608844
lhand -17.4435 19.1988
lfingers 7.12502
lthumb 8.80736 48.995
rfemur -11.321 -5.40697 32.0945
rtibia 34.6409
rfoot -20.418 10.3774
rtoes 23.1378
lfemur -20.7781 -7.28716 -5.49394
ltibia 53.9203
lfoot -12.8694 -9.33653
ltoes 0.671668
1519
root -13.0682 17.0201 -8.70894 373.421 -236.882 -342.428
lowerback 6.68897 1.52729 8.32161
upperback 3.72203 2.81137 3.62416
thorax 0.32259 1.61674 -1.07387
lowerneck -9.55708 -5.45491 -9.02033
upperneck 41.064 -4.85487 6.28517
head 16.9967 -1.48947 3.99794
rclavicle 5.43179e-014 8.11041e-014
rhumerus -27.0377 -3.34813 -82.139
rradius 44.1416
rwrist -16.5945
rhand -20.8092 13.3902
rfingers 7.12502
rthumb 5.55858 -16.5169
lclavicle 5.43179e-014 8.11041e-014
lhumerus -36.4306 6.45967 85.9483
lradius 27.0241
lwrist -0.172999
lhand -17.9931 19.1217
lfingers 7.12502
lthumb 8.27695 48.9395
rfemur -11.2943 -4.91016 32.0013
rtibia 34.4681
rfoot -20.2078 11.3569
rtoes 23.9639
lfemur -20.6931 -7.84302 -5.25576
ltibia 53.5215
lfoot -13.2435 -10.3725
ltoes 3.31159
1520
root -13.0627 17.0247 -8.74663 374.901 -237.938 -341.247
lowerback 6.52524 1.85704 8.91767
upperback 3.58174 3.25765 3.45597
thorax 0.35045 1.84037 -1.59338
lowerneck -9.38684 -5.70013 -8.80454
upperneck 40.9332 -5.45699 6.59862
head 16.9531 -1.67136 3.99335
rclavicle 3.7123e-014 -3.45885e-014
rhumerus -27.3405 -4.51125 -82.0728
rradius 44.1113
rwrist -16.4693
rhand -20.7807 13.1721
rfingers 7.12502
rthumb 5.58611 -16.7343
lclavicle 3.7123e-014 -3.45885e-014
lhumerus -36.3878 4.88452 86.3443
lradius 26.9853
lwrist 0.263664
lhand -18.477 19.3369
lfingers 7.12502
lthumb 7.80995 49.1727
rfemur -11.5776 -4.52599 32.2784
rtibia 34.3401
rfoot -19.9882 12.1414
rtoes 24.4892
lfemur -20.9756 -8.37236 -4.6579
ltibia 53.0905
lfoot -13.5158 -11.2683
ltoes 2.97372
1521
root -13.0595 17.0179 -8.77988 376.461 -238.828 -339.829
lowerback 6.40386 1.99604 9.46746
upperback 3.61463 3.45847 3.46771
thorax 0.506498 1.95655 -1.88304
lowerneck -9.54966 -5.81822 -8.71275
upperneck 40.9144 -5.77025 6.78572
head 17.0257 -1.7737 4.0054
rclavicle -2.44754e-014 -4.73108e-014
rhumerus -27.2789 -5.26683 -81.9711
rradius 43.9432
rwrist -16.274
rhand -20.8775 12.9187
rfingers 7.12502
rthumb 5.49261 -16.9901
lclavicle -2.44754e-014 -4.73108e-014
lhumerus -36.2413 4.13926 86.5504
lradius 27.1223
lwrist 0.608939
lhand -18.7509 19.1321
lfingers 7.12502
lthumb 7.54557 48.9775
rfemur -11.7721 -4.20133 32.6977
rtibia 34.2684
rfoot -19.8495 12.6959
rtoes 23.9001
lfemur -21.1617 -8.80202 -3.95601
ltibia 52.618
lfoot -13.9069 -12.0742
ltoes 1.51868
1522
root -13.0554 17.0196 -8.82209 376.951 -239.867 -339.578
lowerback 6.27147 1.90018 9.16666
upperback 3.64546 3.30772 3.77661
thorax 0.558549 1.88069 -1.38559
lowerneck -9.65844 -5.71579 -9.66806
upperneck 41.0403 -5.37535 6.78372
head 17.131 -1.77401 4.25008
rclavicle -7.67309e-014 4.53229e-014
rhumerus -27.353 -4.16957 -81.4156
rradius 43.9237
rwrist -16.7565
rhand -21.1327 12.6179
rfingers 7.12502
rthumb 5.24625 -17.2972
lclavicle -7.67309e-014 4.53229e-014
lhumerus -36.5666 5.31174 86.9086
lradius 27.4797
lwrist 0.20916
lhand -18.9237 18.5687
lfingers 7.12502
lthumb 7.37876 48.42
rfemur -11.871 -4.05397 32.3561
rtibia 34.2379
rfoot -19.536 13.5439
rtoes 23.3431
lfemur -21.1461 -9.3874 -4.01989
ltibia 52.0512
lfoot -14.2439 -12.8893
ltoes 2.57703
1523
root -13.0551 17.0218 -8.85714 377.645 -240.87 -339.105
lowerback 6.41165 1.97745 9.04496
upperback 3.53673 3.43137 3.93325
thorax 0.360175 1.92895 -1.17397
lowerneck -9.5317 -5.75596 -10.2188
upperneck 41.0162 -5.31919 6.77114
head 17.1098 -1.84926 4.34992
rclavicle 2.85256e-014 1.39149e-014
rhumerus -27.6709 -3.84524 -80.9257
rradius 43.9361
rwrist -17.2512
rhand -21.306 12.2168
rfingers 7.12502
rthumb 5.07893 -17.7024
lclavicle 2.85256e-014 1.39149e-014
lhumerus -36.864 5.84112 87.1496
lradius 27.7806
lwrist -0.416474
lhand -18.2002 18.8359
lfingers 7.12502
lthumb 8.07716 48.6615
rfemur -11.9936 -3.60854 32.1928
rtibia 34.2187
rfoot -19.2529 14.0889
rtoes 23.412
lfemur -21.1414 -10.2233 -3.94504
ltibia 51.3995
lfoot -14.718 -13.3712
ltoes 3.16825
1524
root -13.0488 17.0126 -8.89503 378.974 -241.813 -337.757
lowerback 6.64857 2.26579 9.59406
upperback 3.47704 3.86178 3.61183
thorax 0.266633 2.14205 -1.83943
lowerneck -9.40381 -5.99905 -9.25194
upperneck 40.8627 -5.98542 6.72463
head 17.0164 -1.98697 4.02645
rclavicle 1.56046e-014 3.08116e-014
rhumerus -27.9121 -5.44568 -81.1171
rradius 43.5749
rwrist -16.9242
rhand -21.3685 12.2189
rfingers 7.12502
rthumb 5.01854 -17.7017
lclavicle 1.56046e-014 3.08116e-014
lhumerus -36.8711 4.9207 86.7774
lradius 28.011
lwrist -0.913185
lhand -17.1915 19.1664
lfingers 7.12502
lthumb 9.05056 48.9523
rfemur -11.9025 -3.2473 32.4704
rtibia 34.2072
rfoot -19.6243 14.3287
rtoes 21.7443
lfemur -20.9205 -11.177 -3.45908
ltibia 50.6793
lfoot -15.1861 -13.7262
ltoes 3.95387
1525
root -13.0307 17.0125 -8.94726 379.717 -242.792 -336.958
lowerback 6.75175 2.43191 9.91457
upperback 3.58909 4.08453 3.16454
thorax 0.409131 2.26398 -2.48684
lowerneck -9.64502 -6.15358 -7.89656
upperneck 40.7435 -6.53815 6.46352
head 16.9794 -2.05135 3.55026
rclavicle 3.25261e-014 -1.59028e-015
rhumerus -28.149 -6.32813 -81.561
rradius 43.4531
rwrist -16.6504
rhand -20.8978 12.8571
rfingers 7.12502
rthumb 5.473 -17.0522
lclavicle 3.25261e-014 -1.59028e-015
lhumerus -36.8139 4.08868 86.3295
lradius 28.3218
lwrist -1.21756
lhand -17.0147 19.0741
lfingers 7.12502
lthumb 9.22114 48.8524
rfemur -11.6886 -3.31077 32.271
rtibia 34.2079
rfoot -19.8487 15.317
rtoes 21.4519
lfemur -20.4687 -12.2144 -3.41393
ltibia 49.906
lfoot -15.3619 -14.2228
ltoes 6.2452
